<svg id="art" xmlns="http://www.w3.org/2000/svg" width="35" height="35" 
viewBox="0 0 500 500"><path d="M304.67 171.8H97.72c-2.2 0-4 1.8-4 4 0 2.22 1.8 4 4 4h206.95c2.2 0 4-1.78 4-4 0-2.2-1.8-4-4-4zM304.67 210.86H97.72c-2.2 0-4 1.78-4 4 0 2.2 1.8 4 4 4h206.95c2.2 0 4-1.8 4-4 0-2.22-1.8-4-4-4zM304.67 249.9H97.72c-2.2 0-4 1.8-4 4 0 2.22 1.8 4 4 4h206.95c2.2 0 4-1.78 4-4 0-2.2-1.8-4-4-4zM304.67 288.95H97.72c-2.2 0-4 1.8-4 4s1.8 4 4 4h206.95c2.2 0 4-1.8 4-4s-1.8-4-4-4zM402.3 328H257.8c-2.2 0-4 1.8-4 4s1.8 4 4 4h144.5c2.2 0 4-1.8 4-4s-1.8-4-4-4zM402.3 367.05H257.8c-2.2 0-4 1.8-4 4s1.8 4 4 4h144.5c2.2 0 4-1.8 4-4s-1.8-4-4-4zM402.3 406.1H257.8c-2.2 0-4 1.78-4 4 0 2.2 1.8 4 4 4h144.5c2.2 0 4-1.8 4-4 0-2.22-1.8-4-4-4zM402.3 445.14H257.8c-2.2 0-4 1.8-4 4 0 2.22 1.8 4 4 4h144.5c2.2 0 4-1.78 4-4 0-2.2-1.8-4-4-4zM402.3 171.8h-62.5c-2.2 0-4 1.8-4 4 0 2.22 1.8 4 4 4h62.5c2.2 0 4-1.78 4-4 0-2.2-1.8-4-4-4zM402.3 210.86h-62.5c-2.2 0-4 1.78-4 4 0 2.2 1.8 4 4 4h62.5c2.2 0 4-1.8 4-4 0-2.22-1.8-4-4-4zM402.3 249.9h-62.5c-2.2 0-4 1.8-4 4 0 2.22 1.8 4 4 4h62.5c2.2 0 4-1.78 4-4 0-2.2-1.8-4-4-4zM402.3 288.95h-62.5c-2.2 0-4 1.8-4 4s1.8 4 4 4h62.5c2.2 0 4-1.8 4-4s-1.8-4-4-4z"/><path d="M433.53 0H66.48c-6.5 0-11.8 5.3-11.8 11.8v476.4c0 6.5 5.3 11.8 11.8 11.8h367.05c6.5 0 11.8-5.3 11.8-11.8V11.8c0-6.5-5.3-11.8-11.8-11.8zm3.8 488.2c0 2.1-1.7 3.8-3.8 3.8H66.48c-2.1 0-3.8-1.7-3.8-3.8V11.8c0-2.1 1.7-3.8 3.8-3.8h367.05c2.1 0 3.8 1.7 3.8 3.8v476.4z"/><path d="M402.3 46.86H97.7c-2.2 0-4 1.78-4 4v85.9c0 2.2 1.8 4 4 4H402.3c2.2 0 4-1.8 4-4v-85.9c0-2.22-1.8-4-4-4zm-4 85.9H101.7v-77.9H398.3v77.9zM214.86 328H97.72c-2.2 0-4 1.8-4 4v117.14c0 2.22 1.8 4 4 4h117.14c2.2 0 4-1.78 4-4V332c0-2.2-1.8-4-4-4zm-4 117.14H101.72V336h109.14v109.14z"/></svg>