<svg id="chiken" width="35" height="35" xmlns="http://www.w3.org/2000/svg" viewBox="0 0 425.48 425.48"><path d="M414.22 100.12l-22.78-44.5c-1.66-3.23-3.58-6.27-5.72-9.12l4.68-14.22c2.15-6.56-1.42-13.62-7.97-15.78-6.56-2.15-13.63 1.42-15.78 7.97l-1.47 4.47c-.84-.44-1.68-.86-2.53-1.27l.14-15.05C362.85 5.72 357.3.07 350.4 0c-6.86-.08-12.54 5.47-12.6 12.38l-.1 9.25c-.82-.03-1.65-.03-2.47-.03l-5.48-11.1C326.7 4.3 319.2 1.75 313 4.8c-6.18 3.05-8.73 10.55-5.67 16.74l2.76 5.6c-.93.42-1.85.86-2.76 1.32-.08.04-.16.1-.24.13l-9.48-6.83c-5.6-4.04-13.4-2.78-17.45 2.82-4.04 5.6-2.77 13.4 2.83 17.44l4.23 3.05c-16.3 18.82-49.7 44.9-95.63 61.82-37.1 13.65-93.92 25.2-153.8 2.63-3.1-1.17-6.54-1.05-9.56.32s-5.38 3.9-6.54 7c-17.35 46.3-15.54 96.57 5.1 141.5 20.64 44.95 57.58 79.08 104.03 96.1 7 2.58 14.12 4.7 21.28 6.4l30.68 39.6h-2.74c-6.9 0-12.5 5.6-12.5 12.5s5.6 12.5 12.5 12.5h54.7c6.9 0 12.5-5.6 12.5-12.5s-5.6-12.5-12.5-12.5H214.4l-27-34.85c2.18.08 4.35.13 6.53.13 26.6 0 53.14-5.86 78.07-17.48 44.9-20.95 78.8-57.98 95.52-104.28 1.36-3.77 2.6-7.6 3.7-11.4 9.47-32.68 6.03-65.44-9.58-93.75l46.72-21.7c3.08-1.43 5.45-4.06 6.56-7.27 1.1-3.2.85-6.74-.7-9.76zM344 235.52c-14.43 39.98-43.75 71.98-82.57 90.1-38.8 18.1-82.12 20-122 5.4-40.14-14.73-72.08-44.22-89.9-83.07-3.6-7.82-6.54-15.84-8.8-23.97 3.43 1.6 7 2.97 10.7 4.08 1.2.36 2.4.53 3.6.53 5.38 0 10.34-3.5 11.97-8.92 1.98-6.6-1.77-13.58-8.38-15.56-13.6-4.08-20.76-11.4-23.53-14.9-.14-2.74-.2-5.5-.2-8.24 5.98 2.1 13.3 3.73 22.32 4.52.37.03.73.05 1.1.05 6.4 0 11.87-4.9 12.44-11.4.6-6.9-4.5-12.95-11.37-13.56-11.9-1.05-18.56-3.73-22.18-5.96 1.02-5.86 2.37-11.7 4.05-17.46 60.96 19 121.46 9.1 170.64-11.43 2.1 13.1 8.4 25.25 18.25 34.58 10.96 10.4 25.18 16.26 40.03 16.72 7.15 12.84 18.78 22.78 32.75 27.78 6.65 2.38 13.6 3.56 20.53 3.56 9.6 0 19.15-2.3 27.83-6.74-.4 7.92-1.76 15.95-4.1 23.97-.94 3.3-2.02 6.63-3.2 9.88zm-5.77-113.36c-3.38 1.57-5.9 4.57-6.83 8.17-.94 3.6-.23 7.44 1.94 10.47 7.5 10.42 12.7 21.85 15.53 33.85l-8.44 4.5c-9.07 4.85-19.4 5.6-29.08 2.15-9.7-3.47-17.2-10.62-21.1-20.1l-.72-1.73c-2.14-5.2-7.5-8.34-13.08-7.66-10.68 1.3-21.3-2.2-29.1-9.6-7.63-7.25-11.67-17.38-11.16-27.88 33.35-17.55 59.45-39.23 73.84-57.6 1.77-2.25 5.4-4.3 8.7-5.98 8.9-4.57 19.06-5.4 28.6-2.3S364.6 58.1 369.18 67l16.85 32.93-47.82 22.2z"/><path d="M337.94 60c-3.3 0-6.5 1.32-8.84 3.65-2.32 2.32-3.66 5.54-3.66 8.83s1.34 6.52 3.66 8.84c2.33 2.33 5.55 3.66 8.84 3.66s6.5-1.33 8.84-3.66c2.33-2.32 3.66-5.55 3.66-8.84s-1.33-6.5-3.66-8.83-5.55-3.66-8.84-3.66z"/></svg>