<svg id="cow" xmlns="http://www.w3.org/2000/svg" 
width="35" height="35"
viewBox="0 0 33.001 33.001"><path d="M5.32 8.43c-.4 0-.73-.33-.73-.73 0-.4.32-.73.72-.73s.73.32.73.73c0 .4-.33.73-.73.73zm0-1c-.15 0-.27.12-.27.27 0 .3.54.3.54 0 0-.15-.13-.28-.28-.28z"/><path d="M2.8 12.1c-.6 0-1.32-.42-1.7-.76-.15-.14-1.5-1.4-1-2.27.15-.25.57-.67 1.57-1.63.67-.65 1.43-1.38 1.76-1.8.16-.18.3-.38.45-.58.52-.7 1.07-1.46 1.9-1.67.74-.2 2.1-.55 3.2.8.18.2.14.53-.07.7-.2.18-.52.14-.7-.07-.63-.8-1.32-.7-2.16-.47-.5.12-.9.7-1.36 1.3l-.47.62c-.36.45-1.1 1.18-1.83 1.88-.54.52-1.28 1.23-1.4 1.4.02.12.38.66.8 1.04.35.3.9.53 1.06.48.05 0 .13-.04.2-.07.57-.2 1.6-.6 2.7-.14.86.34 2.65-.4 3.6-1.82.14-.23.45-.3.68-.14.24.15.3.46.16.7-1.14 1.73-3.38 2.76-4.8 2.2-.74-.3-1.5-.03-1.97.15l-.3.1c-.1.02-.2.04-.3.04z"/><path d="M9.13 7.08c-.23 0-.44-.16-.5-.4-.05-.26.1-.52.38-.6.72-.16 1.5-1.17 1.47-1.73 0-.28-.08-.46-.13-.53l-.1.1c-.65.65-1.68 1.36-2.08 1.6-.24.15-.54.08-.7-.16-.13-.23-.06-.54.17-.7.35-.2 1.32-.87 1.9-1.45.5-.5.94-.42 1.16-.33.45.18.74.72.77 1.44.04 1.1-1.1 2.5-2.23 2.76-.04.02-.08.02-.12.02z"/><path d="M26 30.2h-1.66c-.14 0-.28-.07-.37-.17-.1-.1-.14-.25-.13-.4.1-.94.33-3.58.23-4.43-.1-.83-.34-1.95-.5-2.77l-.1-.57c-.04-.14-.26-.5-.45-.83-.62-1.03-1.54-2.6-1.33-4.24.03-.3.27-.5.56-.44.27.03.46.28.43.56-.2 1.3.6 2.63 1.18 3.6.3.5.5.85.56 1.15l.1.57c.18.83.4 1.97.52 2.84.1.87-.07 3.07-.17 4.1h.62c0-.25.03-.63.06-1.14.05-.9.12-2.05.1-2.46-.03-.83.03-3.73.12-4.4.06-.44.47-1.02 1.15-1.94.4-.55.82-1.1 1.08-1.6.57-1.03.88-3.75.45-5.82-.4-1.92-2.02-3.44-4.04-3.8-1.2-.2-2.1.1-3 .43-.63.23-1.24.44-1.9.44-1.38 0-4.06-.14-5.38-.5-1.27-.33-3.37-1.35-4.07-1.83-.23-.16-.3-.47-.13-.7.16-.22.47-.28.7-.12.62.43 2.6 1.38 3.75 1.7 1.16.3 3.7.44 5.12.44.5 0 1-.2 1.58-.4.96-.34 2.04-.72 3.5-.47 2.42.43 4.36 2.27 4.84 4.58.45 2.17.2 5.16-.55 6.52-.3.54-.72 1.14-1.15 1.7-.37.52-.93 1.28-.96 1.5-.1.6-.15 3.46-.12 4.22.02.46-.04 1.57-.1 2.56-.03.63-.08 1.42-.07 1.55.02.14-.03.28-.12.38s-.23.16-.37.16z"/><path d="M23.75 22.18c-.16 0-.3-.08-.4-.22-.4-.6-2.32-1.22-4.25-1.18-1.2.03-2.5.64-3.18 1.2-.2.18-.52.15-.7-.07-.18-.2-.15-.5.07-.7.82-.68 2.32-1.38 3.78-1.42 1.9-.02 4.34.52 5.1 1.62.14.23.08.54-.15.7-.08.05-.18.08-.28.08z"/><path d="M15 30.2h-1.85c-.15 0-.3-.07-.38-.18-.1-.1-.14-.25-.12-.4 0-.03.44-3.5.4-4.64-.02-1.24-.25-2.7-.5-3.26-.1-.2-.3-.53-.55-.87-.5-.75-1.08-1.6-1.17-2.3-.03-.26.16-.5.44-.55.27-.04.52.16.56.43.05.46.6 1.27 1 1.86.27.38.5.73.63 1 .35.78.58 2.47.6 3.66.03.94-.22 3.18-.35 4.23h.8c.02-.9.1-2.8.27-4.26.08-.63.16-1.5.24-2.37.2-2.07.35-3.47.52-3.98.08-.27.37-.4.63-.33.26.1.4.38.3.64-.13.44-.3 2.3-.44 3.77-.08.9-.16 1.76-.24 2.4-.22 1.8-.27 4.3-.27 4.62 0 .27-.24.5-.5.5z"/><path d="M12.28 22.26c-1.04 0-2.33-.5-2.82-2-.22-.65-.37-1.3-.52-1.9-.22-.9-.45-1.85-.9-2.9-.2-.52-.37-.97-.5-1.37-.36-1-.57-1.6-1.2-2.14-.2-.18-.23-.5-.05-.7.17-.2.5-.23.7-.05.82.73 1.1 1.5 1.47 2.55.14.4.3.82.5 1.32.47 1.13.7 2.1.94 3.05.16.62.3 1.2.5 1.84.47 1.4 1.92 1.36 2.4 1.24.26-.07.53.08.6.35.08.27-.08.54-.35.6-.22.07-.5.1-.77.1zM31.23 20.07c-.24 0-.45-.17-.5-.42-.06-.42-.07-1.34-.08-2.5 0-1.32-.02-2.82-.13-3.77-.2-1.53-1.73-2.94-2.72-3.33-.26-.1-.38-.4-.28-.65.1-.25.4-.38.65-.28 1.2.48 3.08 2.1 3.34 4.13.13 1 .14 2.54.15 3.9 0 1.02.02 2 .08 2.33.04.28-.14.54-.4.58h-.1z"/><path d="M31.55 24.74h-.03c-.16 0-.3-.1-.4-.23 0-.02-.37-.6-.8-1.56-.26-.57-.8-2-.3-2.9.15-.28.46-.62 1.07-.7.6-.1 1.06.03 1.4.36.58.58.54 1.58.44 2.4-.2 1.46-.97 2.42-1 2.46-.1.1-.24.18-.4.18zm-.1-4.43c-.07 0-.14 0-.22.02-.22.03-.3.12-.33.2-.2.34-.06 1.16.32 2l.35.72c.16-.33.3-.76.38-1.27.13-1.04 0-1.42-.15-1.55-.07-.08-.2-.1-.36-.1z"/></svg>