<svg id="deer" xmlns="http://www.w3.org/2000/svg" width="35" height="35" viewBox="0 0 161.819 161.819"><path d="M80.94 152.16h-.02c-4.68-.05-6.5-2.45-8.24-4.77-1.08-1.45-2.2-2.95-4.18-4.1-6.13-3.63-6.06-9.3-6.03-12v-.18c0-.45.06-.9.12-1.38.28-2.43.77-6.5-5.46-16.75-6.23-10.28-5.4-21.37-4.7-25.8-6.5.3-26.88.12-32.12-13.36-.22-.56-.08-1.2.36-1.62.07-.08 1.93-1.83 5-2.8 2.83-.92 7.3-1.34 12.47 1.8l.1.06c.16.12 4.17 2.97 7 5.98.88.92 1.63 1.93 2.35 2.9 1.54 2.1 2.86 3.9 4.7 3.9.17 0 .34.04.5.1.82-.04 1.3-.08 1.33-.1.5-.03.96.16 1.28.52.33.37.45.87.33 1.34-.03.14-3.22 13.67 3.97 25.5 6.77 11.15 6.2 15.86 5.87 18.67-.05.38-.1.73-.1 1.05v.18c-.03 2.48-.08 6.64 4.55 9.37 2.5 1.47 3.86 3.28 5.06 4.9 1.6 2.12 2.67 3.53 5.88 3.56.83 0 1.5.7 1.48 1.52 0 .82-.68 1.48-1.5 1.48zm-57.4-78.4c4 8.16 15.67 10.08 23.38 10.4-.6-.68-1.18-1.45-1.74-2.2-.66-.9-1.36-1.85-2.1-2.64-2.5-2.64-6.1-5.25-6.53-5.56-6.3-3.8-11.15-1.3-13 0z"/><path d="M55.6 77.66c-2 0-4.7-1.05-9.06-4.66-6.7-5.54-11.05-6.23-11.1-6.23-4.7-.63-8.15 0-10.24 1.86-2.05 1.83-2.06 4.34-2.06 4.36.02.82-.64 1.5-1.46 1.52-.82.04-1.52-.64-1.53-1.46 0-.16-.05-3.9 3.05-6.67 2.77-2.48 7.02-3.36 12.65-2.6.2.02 5.14.72 12.6 6.9 5.77 4.76 7.5 4.02 8.25 3.7l.07-.03c.1-.08.25-.24.27-.38.03-.15-.08-.38-.28-.63-1.35-1.75-2.6-3.34-2.92-3.74-.76-.73-1.1-2-.35-3.17.4-.64.95-.95 1.56-.9.74-.78 2-2.27 2.87-3.31-.3-.8.05-1.74.85-2.37.43-.34 1.98-1.32 4.15.14l5.27 3.67c.3.12.8.25 1.07.17.06-.02.1-.05.15-.08.97-.55 2.3-1.3 11.46-1.32.84 0 1.5.67 1.5 1.5 0 .82-.66 1.5-1.5 1.5-8.4.03-9.5.66-10 .93-.17.1-.4.23-.7.32-1.55.5-3.12-.24-3.42-.4-.06-.02-.1-.06-.17-.1l-5.32-3.7c0 .1-.02.15-.04.2-.05.2-.15.4-.3.58-.1.14-2.86 3.5-4.03 4.65-.07.08-.18.2-.32.3l2.55 3.27c.95 1.22 1 2.3.86 3-.3 1.55-1.58 2.37-1.73 2.46-.07.04-.15.08-.23.1l-.16.08c-.67.3-1.4.5-2.3.5zM57.15 103.2h-.05c-1.26 0-2.44-.52-3.33-1.42-.88-.9-1.35-2.1-1.34-3.35 0-1.26.52-2.44 1.42-3.32.9-.87 2.1-1.34 3.35-1.34 2.6.03 4.7 2.17 4.67 4.77-.03 2.6-2.14 4.67-4.72 4.67zm0-6.44c-.45 0-.88.18-1.2.5-.33.3-.5.74-.52 1.2 0 .46.17.9.5 1.22.3.33.74.52 1.2.52.95.03 1.73-.75 1.74-1.7 0-.95-.75-1.73-1.7-1.74h-.02z"/><path d="M64.65 104.43c-.6 0-1.18-.38-1.4-.98-2.32-6.2-6.04-6.68-6.2-6.7-.8-.08-1.42-.8-1.34-1.62.08-.82.78-1.43 1.6-1.36.23 0 5.73.52 8.76 8.63.3.78-.1 1.64-.88 1.93-.18.07-.35.1-.53.1zM80.24 146.75c-1.15 0-2.2-.45-3.44-2.3-.32-.47-.82-.83-1.4-1.25-1.24-.9-2.94-2.15-3.25-5.17-.2-1.9.46-3.07 1.05-3.74 1.37-1.55 3.45-1.62 3.68-1.62l4.1.04c.82 0 1.48.7 1.47 1.52 0 .82-.68 1.48-1.5 1.48l-4.06-.04c-.24 0-1.04.14-1.46.6-.1.13-.4.48-.3 1.44.17 1.7.9 2.23 2.03 3.05.7.5 1.5 1.1 2.12 2 .57.87.87 1 .87 1l.2-.02.37-.02c.83 0 1.5.7 1.5 1.52-.02.82-.68 1.48-1.52 1.48h-.14l-.34.03z"/><path d="M78.86 141.25c-.35 0-.7-.12-1-.37l-1.64-1.47c-.62-.54-.67-1.5-.12-2.1.55-.63 1.5-.68 2.12-.13l1.64 1.46c.62.56.68 1.5.13 2.12-.3.34-.72.5-1.14.5zM80.9 152.16c-.83 0-1.5-.66-1.5-1.48-.02-.83.65-1.5 1.47-1.52 3.22-.03 4.28-1.44 5.88-3.57 1.2-1.62 2.57-3.43 5.06-4.9 4.64-2.73 4.6-6.9 4.56-9.37v-.18c0-.32-.05-.67-.1-1.06-.33-2.82-.9-7.53 5.87-18.67 7.22-11.88 4-25.37 3.97-25.5-.1-.48 0-.98.32-1.34.32-.38.8-.57 1.28-.53.04 0 .52.05 1.33.1.16-.07.33-.1.5-.1 1.84-.02 3.17-1.82 4.7-3.9.73-.98 1.47-2 2.34-2.9 2.84-3.02 6.85-5.87 7.02-6 .02 0 .05-.03.08-.05 5.18-3.13 9.64-2.7 12.47-1.8 3.07.97 4.93 2.72 5 2.8.44.42.6 1.06.36 1.63-5.23 13.47-25.6 13.65-32.1 13.34.68 4.44 1.53 15.53-4.7 25.8-6.23 10.25-5.75 14.3-5.46 16.74.06.48.1.93.12 1.38v.17c.03 2.7.1 8.37-6.02 12-1.98 1.15-3.1 2.65-4.2 4.1-1.74 2.3-3.54 4.7-8.23 4.76zm44.38-78.4c-.43.3-4.04 2.92-6.53 5.56-.74.8-1.43 1.72-2.1 2.63-.56.76-1.13 1.52-1.73 2.22 7.7-.33 19.37-2.25 23.36-10.42-1.84-1.28-6.7-3.78-13 0z"/><path d="M106.24 77.66c-.88 0-1.6-.2-2.28-.5l-.17-.06c-.1-.04-.17-.07-.24-.12-.15-.1-1.44-.9-1.72-2.44-.13-.7-.1-1.8.86-3 1.03-1.35 2-2.6 2.56-3.28l-.34-.3c-1.16-1.15-3.92-4.52-4.04-4.66-.14-.17-.24-.37-.3-.58 0-.05 0-.1-.03-.18l-5.3 3.7-.18.1c-.3.15-1.87.9-3.43.4-.3-.1-.52-.23-.7-.33-.48-.26-1.6-.9-10.05-.92-.84 0-1.5-.67-1.5-1.5s.67-1.5 1.5-1.5c9.22.03 10.54.77 11.5 1.3l.16.1c.26.07.77-.05 1.07-.2l5.26-3.64c2.18-1.48 3.73-.5 4.15-.16.8.63 1.14 1.58.85 2.37.88 1.05 2.13 2.53 2.88 3.3.62-.04 1.14.28 1.56.92.76 1.16.4 2.43-.35 3.16-.33.4-1.58 2-2.93 3.74-.2.25-.3.5-.28.62.02.14.18.3.26.38l.07.03c.74.32 2.5 1.06 8.25-3.7 7.46-6.18 12.4-6.88 12.6-6.9 5.63-.76 9.9.12 12.65 2.6 3.1 2.76 3.06 6.5 3.06 6.66-.03.82-.73 1.5-1.54 1.46-.83 0-1.48-.7-1.47-1.52 0-.12-.03-2.58-2.1-4.4-2.1-1.84-5.53-2.46-10.22-1.83-.04 0-4.38.7-11.1 6.23-4.34 3.6-7.06 4.66-9.04 4.66zM104.68 103.2c-2.58 0-4.7-2.08-4.72-4.67 0-1.26.47-2.45 1.35-3.35s2.07-1.4 3.33-1.42h.06c2.56 0 4.68 2.08 4.7 4.67.03 2.6-2.06 4.74-4.66 4.77h-.06zm0-6.44c-.47 0-.9.2-1.23.52-.32.33-.5.76-.5 1.22.02.95.83 1.72 1.75 1.7.95 0 1.72-.8 1.7-1.74 0-.94-.78-1.7-1.7-1.7z"/><path d="M97.18 104.43c-.17 0-.35-.03-.52-.1-.78-.3-1.17-1.15-.88-1.93 3.02-8.1 8.52-8.62 8.76-8.63.8-.06 1.54.55 1.6 1.38.07.82-.54 1.53-1.35 1.6-.2.03-3.9.54-6.2 6.7-.24.6-.8.98-1.42.98zM81.65 146.76c-.12 0-.23 0-.34-.02h-.13c-.87-.02-1.5-.66-1.5-1.5-.02-.82.65-1.5 1.48-1.5h.36c.1.02.2.02.22.02 0 0 .3-.12.88-.98.6-.92 1.4-1.5 2.12-2 1.12-.83 1.86-1.37 2.04-3.06.1-.97-.22-1.32-.32-1.43-.43-.5-1.3-.62-1.48-.62l-4 .04h-.03c-.82 0-1.5-.66-1.5-1.48 0-.83.66-1.5 1.5-1.52l4.04-.04c.27 0 2.35.08 3.7 1.6.6.68 1.26 1.86 1.07 3.75-.3 3.02-2.02 4.26-3.26 5.17-.57.42-1.07.78-1.4 1.26-1.3 1.92-2.4 2.3-3.43 2.3z"/><path d="M83.03 141.25c-.42 0-.83-.16-1.13-.5-.55-.62-.5-1.56.13-2.12l1.64-1.46c.62-.55 1.57-.5 2.12.12.54.6.5 1.56-.13 2.1l-1.65 1.47c-.28.26-.64.38-1 .38zM55.67 68.08c-.27 0-.54-.06-.78-.2C23.12 48.67 4.47 33.15.96 22.97c-1.94-5.6-.6-8.87.85-10.64 1.64-1.98 4.28-2.98 6.87-2.6 2.45.35 4.33 1.8 5.02 3.85.56 1.7.15 3.52-1.08 4.75-.6.6.2 3.4 1.25 5.33 0 .04.03.08.05.13 1.13 2.65 4.35 6.2 7.13 8.95-.3-2.2-.03-4.3.87-5.93 1-1.8 2.7-2.85 4.7-2.85h.03c4.67.02 5.98 4.25 6.02 6.48-.24 6.63 2.76 11.78 5.7 15.2-.07-1.14.12-2.23.58-3.2.92-2 2.85-3.24 4.93-3.16 3.76.12 5.18 3.95 5.43 6.18.7 9.08 10.67 15.7 10.77 15.75.7.45.9 1.38.44 2.08-.45.7-1.38.9-2.08.44-.46-.3-11.32-7.5-12.12-17.98 0 0-.43-3.4-2.54-3.47-.9-.06-1.68.5-2.1 1.4-.86 1.84 0 4.45 2.3 7 .5.55.53 1.4.05 1.97-.48.57-1.3.7-1.95.3-.53-.33-12.92-8.27-12.4-22.54-.02-.5-.25-3.45-3.04-3.46-.9 0-1.6.44-2.08 1.3-1 1.8-.98 5.4 1.37 9.07.4.63.28 1.45-.28 1.94s-1.4.5-1.96 0c-.4-.34-10.02-8.62-12.48-14.22-.63-1.17-3.2-6.33-.7-8.83.43-.43.56-1.06.35-1.7-.32-.95-1.3-1.64-2.6-1.83-1.55-.22-3.17.4-4.13 1.55-1.38 1.66-1.5 4.42-.34 7.76C5.67 27.44 15 40.27 56.44 65.3c.7.43.94 1.35.5 2.06-.27.47-.77.72-1.27.72zM106.15 68.08c-.5 0-1-.25-1.28-.72-.43-.7-.2-1.63.5-2.06 41.44-25.04 50.78-37.87 52.65-43.3 1.15-3.33 1.03-6.1-.34-7.75-.96-1.16-2.58-1.77-4.13-1.55-1.3.2-2.28.88-2.6 1.83-.2.64-.08 1.27.35 1.7 2.5 2.5-.07 7.66-.7 8.83-2.46 5.6-12.08 13.88-12.5 14.23-.55.47-1.4.47-1.95-.02-.56-.5-.68-1.3-.28-1.94 2.35-3.68 2.36-7.28 1.37-9.07-.48-.87-1.17-1.3-2.08-1.3-.3 0-2.98.1-3.04 3.54.52 14.2-11.88 22.14-12.4 22.47-.64.4-1.47.27-1.95-.3-.48-.58-.47-1.42.04-1.97 2.3-2.55 3.18-5.16 2.32-7-.42-.9-1.2-1.45-2.1-1.4-2.12.06-2.54 3.48-2.55 3.5-.8 10.45-11.65 17.64-12.1 17.95-.7.45-1.63.25-2.08-.44-.47-.68-.27-1.6.42-2.07.1-.06 10.08-6.7 10.77-15.7.24-2.3 1.66-6.1 5.4-6.24 2.1-.1 4.02 1.15 4.95 3.14.45.98.64 2.06.58 3.2 2.93-3.4 5.93-8.54 5.7-15.1.03-2.32 1.35-6.55 6-6.57h.04c2 0 3.7 1.04 4.7 2.85.9 1.63 1.17 3.72.87 5.93 2.78-2.75 6-6.3 7.13-8.94l.06-.12c1.07-1.97 1.85-4.72 1.25-5.33-1.23-1.23-1.65-3.05-1.08-4.76.7-2.07 2.57-3.5 5.03-3.87 2.6-.37 5.23.63 6.87 2.6 1.46 1.78 2.8 5.06.86 10.66-3.52 10.15-22.17 25.67-53.93 44.87-.25.14-.52.2-.78.2z"/></svg>