<svg xmlns="http://www.w3.org/2000/svg" viewBox="0 0 512.001 512.001"><path d="M492.4 189.78c-9.4-9.43-22.27-22.36-25.23-29.75-2.6-6.52-10.42-11.06-22.05-17.25-1.36-.73-2.7-1.43-3.9-2.1v-13.5h.56c14.33 0 26-11.67 26-26 0-4.58-3.72-8.3-8.3-8.3-4.6 0-8.3 3.72-8.3 8.3 0 5.2-4.22 9.4-9.4 9.4h-23.02c-1.37-2.04-3.44-6.4-3.95-14.42 6.63-5.93 24.66-24.1 26.4-47.44.35-4.57-3.08-8.55-7.65-8.9-4.57-.33-8.55 3.1-8.9 7.67-1.23 16.6-15 30.84-20.54 35.94-1.17-.3-2.3-.72-3.42-1.17 7.44-10 14-24 14-34.16 0-4.58-3.7-8.3-8.3-8.3-4.57 0-8.28 3.72-8.28 8.3 0 5.35-4.97 16.73-11.07 24.76-3.28-3.27-5.73-6.52-7.2-8.66 4-21.4-1.28-47.53-12-57.54-3.36-3.13-8.6-2.95-11.73.4-3.13 3.35-2.95 8.6.4 11.72 5.58 5.2 10.86 26.9 6.45 45.06-.5 2.04-.2 4.2.83 6.02.34.62 5.06 8.83 13.56 16.66-10.47-4.35-22.36-11.66-33.46-23.9-.33-15.92-3.16-35.4-10.27-45.75-2.6-3.78-7.75-4.73-11.53-2.14-3.77 2.6-4.73 7.76-2.13 11.54 3.27 4.75 5.85 15.58 6.9 27.86l-15.14-5.05c-4.34-1.44-9.04.9-10.5 5.25-1.44 4.34.9 9.04 5.26 10.5l24.4 8.12c25.64 28.8 55.65 34.95 69.32 36.2.8 2.86 1.76 5.26 2.8 7.28-3.3-2.12-7.2-4-11.77-5.46-3.5-1.1-7.33.23-9.38 3.28-.7 1.03-4.16 6.65-4.55 16.15-.4 10.03 2.68 20.47 9.2 31.13-5.54 4.5-14.63 11.63-24.7 18.5-28.9 19.75-39.68 19.67-42.3 19.17-17.26-3.3-34.37-2-48.12-.97-5.64.42-10.98.82-15.35.82-13.27 0-37.84-4.25-61.6-8.36-26.5-4.6-53.92-9.34-71.1-9.34-23.86 0-47.7 11.7-63.5 21.5-17.4 10.8-33.74 24.95-40.7 35.23-8.1 12-5.45 21.6-3.33 29.33 1 3.58 1.92 6.95 1.92 10.7 0 4.8-4.5 10.78-8.47 16.06C4.5 300.5 0 306.5 0 313.5c0 4.6 3.7 8.32 8.3 8.32 4.57 0 8.3-3.7 8.3-8.28.13-1.7 3.6-6.33 5.9-9.4 5.24-6.97 11.77-15.66 11.78-26 1.53 2.56 3.2 4.97 5.04 7.3 7.5 20.37 5.3 41.97-6.58 64.2C23.5 366.92 11.6 378.1 11.5 378.2c-1.7 1.56-2.65 3.77-2.65 6.08v88.46c0 .9.14 1.78.42 2.63l8.85 26.54c1.13 3.4 4.3 5.68 7.87 5.68h17.68c2.94 0 5.67-1.56 7.16-4.1 1.48-2.54 1.5-5.68.08-8.25l-25.5-45.48v-12.1c1.3-22.5 22.7-43.54 41.57-62.1 5.96-5.88 11.76-11.6 16.85-17.24-.25 1.47-.54 2.94-.9 4.45-3.5 14.48-10.75 25.73-10.82 25.83-1.4 2.12-1.73 4.76-.93 7.17l26.54 79.62c.23.7.56 1.36.97 1.97l17.7 26.54c1.54 2.3 4.13 3.7 6.9 3.7H141c3.26 0 6.22-1.92 7.56-4.9 1.34-2.98.8-6.47-1.38-8.9l-41.27-46.34-7.63-22.92c6.13-20.1 24.56-41.26 42.4-61.73 6.9-7.93 13.66-15.7 19.6-23.3 10.28 1.2 39.72 4.27 68.93 4.27 12.64 0 25.22-.6 36.2-2.14v59.32l-17.45 69.78c-.38 1.53-.32 3.14.18 4.64l8.85 26.54c1.13 3.4 4.3 5.68 7.86 5.68h17.7c2.93 0 5.65-1.55 7.14-4.08 1.5-2.53 1.54-5.65.12-8.22l-21.26-38.53 13.05-52.2 6.63-16.36 3.7 14.8v69.75c0 .9.15 1.77.43 2.62l8.85 26.54c1.14 3.4 4.3 5.68 7.88 5.68h17.7c2.93 0 5.66-1.56 7.15-4.1 1.48-2.54 1.52-5.68.08-8.25l-25.48-45.47V403.7c3.05-7.08 14.65-35.08 17.2-56.13 17.35-3 43.23-15.37 52.8-47.88 6.47-8.07 38.92-48.93 51.8-72.35 8.6 3.18 23.16 7.45 36.7 6.2 9.1 4.02 16.85 6.06 23.3 6.06 4.76 0 8.83-1.1 12.26-3.27 4.3-2.74 9.42-8.45 9.42-20.14 0-6.48-5.66-12.42-19.6-26.4zM55.36 363.72c-10.28 10.13-21.23 20.9-29.93 32.65v-8.63c4.5-4.66 13.8-15.2 21.68-29.77 9.2-17.04 13.58-34.36 13.07-51.18 3.92 3.7 8.3 7.85 13.03 12.6 4.03 4.02 7 8.57 8.94 13.63-4.9 9.17-15.53 19.64-26.78 30.7zm438.3-141.36c-.5.32-5.32 2.87-21.73-4.77-.03 0-.05-.02-.07-.03 0 0-.02 0-.03-.02-.03 0-.05-.02-.08-.03-.22-.1-.44-.2-.68-.28l-.2-.07c-.2-.06-.38-.12-.57-.16-.1-.04-.22-.06-.33-.08l-.45-.1c-.15 0-.3-.02-.45-.04-.12 0-.23-.02-.35-.03H467.92c-.26.02-.5.04-.76.08h-.05-.04-.04c-16.02 2.3-36.96-7.48-37.16-7.58-2.06-.98-4.43-1.07-6.55-.24-2.12.83-3.8 2.5-4.68 4.6-6.87 16.76-41.36 61.26-54.07 77-.72.9-1.25 1.93-1.55 3.04-9.96 36.7-43.83 38.07-45.22 38.1-4.52.1-8.15 3.78-8.15 8.3 0 9.08-3.63 22.47-7.7 34.5l-11.1-44.37V313.5c0-4.58-3.7-8.3-8.3-8.3-4.57 0-8.28 3.72-8.28 8.3v9.54c-27.12 7.25-79.23 3.3-103.11.93 5.6-9.3 9.1-18.32 9.1-27.05 0-4.6-3.7-8.3-8.3-8.3-4.57 0-8.28 3.7-8.28 8.3 0 14.23-18.05 34.94-35.5 54.97-13.94 16-28.23 32.4-37.67 49.28l-2.37-7.07c2.85-5.03 7.84-14.95 10.8-26.97 5.9-23.86 1.06-44.43-14-59.5-5.6-5.6-10.64-10.34-15.08-14.52-13.64-12.84-21.16-19.92-25.72-32.86-4.74-13.42-.82-24.32 2.22-26.92.26-.2.5-.44.7-.68 18.66-15.9 49.98-34.7 76.25-34.7 15.76 0 42.45 4.62 68.27 9.1 25.58 4.42 49.73 8.6 64.43 8.6 5 0 10.63-.43 16.6-.87 13.43-1 28.66-2.16 43.77.72 25.85 4.92 76.67-37.55 86.6-46.1 3.27-2.84 3.82-7.72 1.25-11.2-9.23-12.53-10.77-22-10.36-27.88 9.7 6.22 10.78 15.43 10.9 16.74.28 4.53 4.17 8 8.72 7.75 4.57-.25 8.08-4.16 7.83-8.73-.03-.63-.64-9.78-7.14-18.97.36.04.72.07 1.08.07h9.4v18.25c0 2.77 1.38 5.36 3.7 6.9 2.34 1.56 5.57 3.28 9 5.1 4.15 2.22 12.74 6.8 14.56 9.1.04.08.08.16.1.24h-.27c-4.58 0-8.3 3.7-8.3 8.3 0 4.57 3.72 8.3 8.3 8.3h10.7c.3 0 .6-.03.9-.07 5.28 6.1 11.5 12.34 17.32 18.2 5.45 5.46 12.77 12.8 14.73 15.9-.14 2.55-.75 4.33-1.7 4.94z"/></svg>