<svg xmlns="http://www.w3.org/2000/svg" viewBox="0 0 436.74 436.74"><path d="M278.08 339.56c-4.03-.93-8.06 1.6-9 5.63l-8.67 37.67H16.93l22.96-99.67h185.5c4.14 0 7.5-3.35 7.5-7.5s-3.36-7.5-7.5-7.5H39.87l-22.96-99.67h243.5l11.04 48c.93 4.04 4.96 6.56 9 5.63 4.03-.93 6.55-4.96 5.62-9l-12-52.13L300.1 48.05c.5-2.23-.02-4.57-1.44-6.36s-3.6-2.84-5.87-2.84H33.9c-3.48 0-6.5 2.42-7.3 5.82L.2 159.35c-.26 1.1-.26 2.26 0 3.37l26.02 113L.18 388.68c-.52 2.22 0 4.56 1.43 6.35s3.6 2.83 5.87 2.83h258.88c3.5 0 6.52-2.42 7.3-5.82l10.02-43.5c.93-4.04-1.58-8.07-5.62-9zM39.88 53.86h243.48l-22.95 99.68H16.93l22.96-99.67z"/><path d="M63 93.2h129c4.13 0 7.5-3.36 7.5-7.5s-3.37-7.5-7.5-7.5H63c-4.14 0-7.5 3.36-7.5 7.5s3.35 7.5 7.5 7.5zM49.5 129.2h129c4.13 0 7.5-3.36 7.5-7.5s-3.37-7.5-7.5-7.5h-129c-4.14 0-7.5 3.36-7.5 7.5s3.36 7.5 7.5 7.5zM199.5 315.04c0-4.14-3.37-7.5-7.5-7.5H63c-4.15 0-7.5 3.36-7.5 7.5s3.35 7.5 7.5 7.5h129c4.13 0 7.5-3.36 7.5-7.5zM49.5 343.54c-4.14 0-7.5 3.36-7.5 7.5s3.36 7.5 7.5 7.5h129c4.13 0 7.5-3.36 7.5-7.5s-3.37-7.5-7.5-7.5h-129zM186 200.37c0-4.14-3.37-7.5-7.5-7.5h-129c-4.14 0-7.5 3.36-7.5 7.5s3.36 7.5 7.5 7.5h129c4.13 0 7.5-3.36 7.5-7.5zM63 243.87h129c4.13 0 7.5-3.36 7.5-7.5s-3.37-7.5-7.5-7.5H63c-4.14 0-7.5 3.36-7.5 7.5s3.35 7.5 7.5 7.5zM216.13 100.33c.53 2.63 2.42 4.78 4.96 5.64.78.26 1.58.4 2.4.4 1.8 0 3.56-.66 4.95-1.88l25.5-22.5c3.1-2.75 3.4-7.5.66-10.6-2.73-3.1-7.47-3.4-10.58-.66L228.3 84.62l-.46-2.23c-.8-4.07-4.76-6.7-8.82-5.9-4.06.82-6.7 4.77-5.9 8.84l3 15zM223.87 222.75c.37 0 .74-.02 1.1-.08 2.66-.4 4.9-2.18 5.88-4.68l12.4-31.67c1.52-3.86-.38-8.2-4.23-9.72-3.86-1.5-8.2.4-9.72 4.25l-7.66 19.54-1.42-1.8c-2.58-3.23-7.3-3.77-10.54-1.2-3.24 2.58-3.78 7.3-1.2 10.54l9.52 11.98c1.43 1.8 3.6 2.83 5.87 2.83zM224.7 258.6c1.42 1.8 3.6 2.83 5.86 2.83.37 0 .74-.02 1.1-.08 2.66-.4 4.9-2.18 5.88-4.68l12.4-31.66c1.52-3.85-.38-8.2-4.23-9.7-3.85-1.52-8.2.38-9.7 4.24l-7.67 19.53-1.42-1.78c-2.57-3.25-7.28-3.8-10.53-1.2-3.24 2.56-3.78 7.28-1.2 10.53l9.52 11.97zM434.7 178.7l-38.23-40.77c-1.36-1.45-3.24-2.3-5.23-2.36-2-.06-3.92.67-5.37 2.03l-143.3 134.43c-.93.86-1.6 1.94-2 3.14l-18.08 55.27c-.86 2.6-.22 5.46 1.65 7.46 1.44 1.53 3.43 2.37 5.47 2.37.63 0 1.25-.08 1.87-.24l56.3-14.5c1.23-.32 2.35-.93 3.27-1.8l143.3-134.43c3.02-2.83 3.17-7.58.34-10.6zM241 322.1l9.9-30.24 20.9 22.3-30.8 7.93zm45.27-14.44l-27.97-29.82 132.36-124.17 27.98 29.82-132.37 124.16z"/></svg>