<svg id="mail" xmlns="http://www.w3.org/2000/svg" 
width="35" height="35"
viewBox="0 0 31.012 31.012"><path d="M25.1 21.5c-.1 0-.24-.03-.33-.13L19 15.97c-.2-.18-.2-.5 0-.7.18-.2.5-.2.7-.02l5.75 5.4c.2.18.2.5.02.7-.1.1-.23.16-.36.16zM5.9 21.5c-.13 0-.26-.04-.36-.15-.2-.2-.18-.52.02-.7l5.76-5.4c.2-.2.5-.18.7.02.2.2.18.52-.02.7l-5.76 5.4c-.1.1-.2.14-.34.14z"/><path d="M28.5 26.53h-26c-1.38 0-2.5-1.12-2.5-2.5V6.98c0-1.38 1.12-2.5 2.5-2.5h26c1.4 0 2.5 1.12 2.5 2.5v17.05c0 1.38-1.1 2.5-2.5 2.5zM2.5 5.48c-.83 0-1.5.67-1.5 1.5v17.05c0 .83.67 1.5 1.5 1.5h26c.84 0 1.5-.67 1.5-1.5V6.98c0-.83-.66-1.5-1.5-1.5h-26z"/><path d="M15.5 18.02c-.66 0-1.32-.22-1.83-.66L.83 6.16c-.2-.2-.23-.5-.05-.7.18-.22.5-.24.7-.06l12.85 11.2c.64.56 1.72.56 2.35 0L29.5 5.42c.2-.18.53-.16.7.05.2.2.17.52-.03.7l-12.83 11.2c-.5.43-1.17.65-1.83.65z"/></svg>