<svg id="milk" xmlns="http://www.w3.org/2000/svg" width="35" height="35" viewBox="0 0 897.764 897.764"><path d="M563.42 193.52l.15-72.2L312.2 0l-.23 109.85L202.6 267.53v522.45l221.37 107.78 271.2-106.07V258.4L563.4 193.53zm43.92 65.58l-86.27-11.5 16-23.08 70.27 34.58zm18.7 22.36l-175.22 67.46 57.63-83.1 117.6 15.64zM351.5 62.7l172.64 83.32-.1 50.24-172.65-83.32.1-50.24zm63.15 785.9L242 765.3V292.5l172.63 83.3v472.8zm6.55-491.52l-174.36-84.15 97.98-141.28 174.36 84.15-97.98 141.28zm234.57 407.64l-221.42 85.23V376.37l221.42-85.23v473.58z"/><path d="M551.35 668.1c62.94-24.28 44.43-129.98-6.9-185.03-44.43 83.57-56.03 209.3 6.9 185.02z"/></svg>