<svg id="video" xmlns="http://www.w3.org/2000/svg" 
viewBox="0 0 496.004 496.004" width="35" height="35"><path d="M312.7 191.1l-79.27-54.27c-3.75-2.58-7.54-3.88-11.04-3.88-7.93 0-13.15 6.5-13.15 16.58V263.6c0 10.1 5.22 16.6 13.13 16.6 3.5 0 7.24-1.3 11-3.88l79.3-54.25c5.78-3.96 9.1-9.6 9.1-15.5 0-5.88-3.3-11.52-9.07-15.48z"/><path d="M496 119.5c0-25.33-20.54-45.87-45.88-45.87H45.88C20.54 73.63 0 94.17 0 119.5v257c0 25.34 20.54 45.88 45.88 45.88h404.24c25.34 0 45.88-20.54 45.88-45.9V119.52zM457.4 375.9H131c-2.82 15.5-14.45 22.9-28.35 22.9-13.9 0-25.54-7.4-28.36-22.9H38.9c-4.28 0-7.75-3.47-7.75-7.75 0-4.28 3.47-7.76 7.75-7.76h36.36c3.9-11.62 14.72-19.64 27.43-19.64 12.7 0 23.52 8.02 27.43 19.64h327.3c4.27 0 7.74 3.47 7.74 7.76 0 4.28-3.47 7.75-7.75 7.75zm23.1-54.25h-465v-200.8c0-16.75 13.84-31.7 30.6-31.7h404.23c16.75 0 30.17 14.95 30.17 31.7v200.8z"/></svg>