<svg xmlns="http://www.w3.org/2000/svg" viewBox="0 0 512 512"><path d="M265.14 77.72C164.3 77.72 82.3 159.75 82.3 260.56c0 39.58 12.42 77.24 35.96 108.93 3 4.05 8.72 4.9 12.8 1.9 4.05-3.02 4.9-8.75 1.88-12.8-21.17-28.52-32.37-62.42-32.37-98.03C100.57 169.82 174.4 96 265.14 96S429.7 169.82 429.7 260.57c0 36.06-11.42 70.3-33.08 99-3.03 4.02-2.23 9.76 1.8 12.8 1.65 1.24 3.6 1.84 5.5 1.84 2.78 0 5.5-1.24 7.3-3.63 24.06-31.9 36.78-69.94 36.78-110 0-100.82-82.03-182.85-182.86-182.85z"/><path d="M504.5 416.15l-246.84-45.7c-1.1-.22-2.23-.22-3.32 0L7.5 416.13c-5 .92-8.26 5.7-7.34 10.66.9 4.97 5.7 8.25 10.65 7.33l245.2-45.4 245.2 45.4c.56.1 1.1.15 1.66.15 4.32 0 8.17-3.07 9-7.47.9-4.96-2.37-9.73-7.35-10.65z"/></svg>