<svg id="box" 
xmlns="http://www.w3.org/2000/svg" width="35" height="35"
viewBox="0 0 511.999 511.999"><path d="M511.15 181.87c-1.36-2.72-4.13-4.43-7.17-4.43H414.2c-2.53 0-4.9 1.18-6.42 3.2l-61.73 82.3h-180.1l-61.73-82.3c-1.52-2.02-3.9-3.2-6.42-3.2H8.02c-3.04 0-5.82 1.7-7.17 4.43s-1.07 5.96.75 8.4l62.53 83.37v228.2c0 4.43 3.6 8.02 8.02 8.02h367.7c4.43 0 8.02-3.6 8.02-8V273.63l62.53-83.38c1.82-2.43 2.1-5.68.75-8.4zm-336.92 97.1h69.48v31h-69.47v-31zm-150.18-85.5H93.8l52.1 69.48H76.16l-52.1-69.48zm407.78 300.36h-73.75v-26.2c0-4.42-3.6-8-8.02-8-4.43 0-8 3.58-8 8v26.2H80.15V278.98h78.04V318c0 4.42 3.58 8 8 8h85.52c4.43 0 8.02-3.58 8.02-8v-39.02h82.3V431.3c0 4.42 3.6 8 8.02 8 4.43 0 8.02-3.57 8.02-8V278.98h73.75v214.85zm4-230.88H366.1l52.1-69.48h69.75l-52.1 69.48z"/><path d="M304 349.1c-4.54-4.55-10.58-7.05-17-7.05s-12.47 2.5-17 7.04l-70.65 70.63-34.3-34.3c-4.54-4.54-10.58-7.04-17-7.04s-12.47 2.5-17 7.03c-4.56 4.54-7.06 10.58-7.06 17s2.5 12.47 7.04 17l51.3 51.32c4.55 4.54 10.58 7.05 17 7.05s12.47-2.5 17.02-7.05L304 383.1c4.55-4.54 7.05-10.58 7.05-17s-2.5-12.47-7.05-17zm-11.33 22.66l-87.65 87.65c-1.52 1.53-3.53 2.36-5.67 2.36s-4.16-.83-5.67-2.35l-51.3-51.3c-7.32-7.3 4.02-18.65 11.33-11.33l39.98 39.97c3.13 3.13 8.2 3.13 11.34 0l76.3-76.32c7.32-7.3 18.66 4.03 11.35 11.34zM357.5 122.6c-1.2-3.03-4.16-5.02-7.44-5.02h-34.74V10.15c0-4.42-3.58-8-8-8H204.68c-4.43 0-8.02 3.58-8.02 8v23.52c0 4.43 3.58 8.02 8 8.02s8.03-3.6 8.03-8.03v-15.5h86.6V125.6c0 4.42 3.58 8 8 8h22.75L256 204.3l-74.05-70.7h22.74c4.42 0 8-3.58 8-8V67.86c0-4.42-3.58-8-8-8s-8.02 3.58-8.02 8v49.7h-34.74c-3.28 0-6.23 2-7.45 5.04-1.22 3.05-.47 6.53 1.9 8.8l94.06 89.78c1.55 1.48 3.55 2.22 5.54 2.22 2 0 4-.74 5.54-2.22l94.06-89.8c2.37-2.25 3.12-5.73 1.9-8.77z"/></svg>