<svg id="phone" xmlns="http://www.w3.org/2000/svg" width="35" height="35"
viewBox="0 0 29.731 29.731"><path d="M23.9 29.73c-1.24 0-2.74-.3-4.38-.93-3.6-1.36-7.52-4.04-11.03-7.55C4.96 17.73 2.3 13.8.92 10.2-.3 6.94-.3 4.26.93 3.03l.53-.57C2.6 1.27 3.86-.05 5.54 0 6.7.05 7.82.77 8.97 2.2c3.4 4.23 1.87 5.73.1 7.48l-.32.3c-.3.3-.84 1.64 4.26 6.74 1.67 1.66 3.1 2.88 4.23 3.62.7.46 2 1.16 2.5.64l.33-.32c1.74-1.77 3.25-3.3 7.47.1 1.43 1.15 2.15 2.27 2.2 3.43.07 1.68-1.27 2.95-2.45 4.07l-.57.54c-.6.62-1.57.93-2.8.93zM5.4 1C4.22 1 3.14 2.14 2.2 3.14l-.57.58c-.92.92-.83 3.32.23 6.14 1.3 3.47 3.92 7.26 7.33 10.68 3.4 3.4 7.2 6.02 10.68 7.33 2.8 1.06 5.2 1.15 6.13.23l.6-.56c1.02-.97 2.18-2.08 2.13-3.3-.04-.85-.65-1.76-1.83-2.7-3.5-2.83-4.5-1.83-6.13-.18l-.32.33c-.78.77-2.05.6-3.77-.52-1.2-.78-2.66-2.04-4.38-3.76-4.23-4.23-5.58-6.8-4.26-8.14l.32-.32c1.66-1.63 2.66-2.6-.17-6.13C7.24 1.65 6.33 1.03 5.5 1h-.08z"/></svg>