<svg id="pig" xmlns="http://www.w3.org/2000/svg" 
width="35" height="35"
viewBox="0 0 512.001 512.001"><path d="M401.1 348.06l.6-.15.67-.18c-.44.1-.86.2-1.27.34zM424.74 448.24c-.07-.43-5.98-41.37-8.96-81.9-2.8.8-5.64 1.6-8.58 2.36-4.13 1.1-8.33 2.14-12.58 3.15 2.07 26.42 5.23 52.45 7.15 67.18h-13.7c-4.17-10.42-12.48-33.03-18.6-61.9-3.63.68-7.27 1.32-10.94 1.93-3.38.56-6.83 1.1-10.3 1.6 8.95 42.8 22.32 72.28 22.93 73.6 1.75 3.83 5.57 6.28 9.78 6.28h33.15c3.1 0 6.08-1.35 8.13-3.7s2.95-5.5 2.5-8.6zM321.36 363.63c.14-.1.28-.18.43-.27l-.44.27zM320.53 364.25l.4-.3-.4.3zM319.76 364.95l.37-.34-.37.35zM319.07 365.72l.33-.4c-.1.14-.22.26-.33.4zM316.68 371.4l.07-.5-.07.5zM316.84 370.36l.13-.52c-.05.18-.1.35-.13.52zM316.62 372.5c0-.2 0-.37.02-.55l-.02.54zM322.25 363.1c.15-.1.3-.17.47-.24l-.47.23zM317.1 369.34l.18-.5-.17.5zM317.9 367.43c.1-.15.2-.3.28-.45l-.27.45zM317.46 368.37l.23-.5c-.1.17-.17.33-.24.5zM318.45 366.55c.1-.15.2-.3.3-.42l-.3.42zM323.2 362.64l.5-.2-.5.2zM346.63 448.25c-.04-.34-4.54-31.5-7.67-66.3-3.44.45-6.9.9-10.37 1.3-.42.03-.84.06-1.25.06-5.4 0-10.04-4.04-10.67-9.53-.03-.24-.04-.5-.05-.74v.37c2.07 25.84 5.15 51.17 7.04 65.64h-13.7c-4.35-10.88-13.2-35.02-19.4-65.65-.86-5.07-5.27-8.92-10.6-8.92-1.1 0-2.16.17-3.16.48l.26-.02c5.9-.5 11.1 3.92 11.6 9.84.47 5.92-3.93 11.1-9.86 11.6-2.48.2-4.9.38-7.32.53 8.9 39.44 21.03 66.17 21.58 67.37 1.75 3.83 5.57 6.28 9.78 6.28H336c3.1 0 6.08-1.36 8.12-3.72 2.05-2.36 2.96-5.5 2.5-8.58zM325.23 362l.57-.08-.57.1zM324.18 362.28c.18-.06.37-.1.55-.15l-.55.15zM226.37 448.25c-.05-.33-4.18-28.9-7.27-61.88-4.58-.47-9.14-1.08-13.63-1.82-2.78-.45-5.53-.97-8.28-1.52 1.98 22.36 4.55 43.34 6.2 56h-13.7c-4.22-10.52-12.66-33.5-18.82-62.96-6.25-2.07-12.38-4.4-18.34-7-1.8-.8-3.6-1.62-5.37-2.45 8.64 50.17 24.9 86.1 25.62 87.65 1.74 3.82 5.56 6.27 9.77 6.27h33.15c3.13 0 6.1-1.35 8.14-3.7 2.04-2.37 2.95-5.5 2.5-8.6z"/><path d="M288.65 374.78c-.48-5.92-5.7-10.33-11.6-9.85l-.24.02c-10.72.87-19.92 1.2-32.7 1.2-11.9 0-23.7-.94-35.16-2.83-16.74-2.73-32.82-7.43-47.8-13.97-9.9-4.33-19.3-9.46-27.94-15.28-2.08-1.4-4.18-2.9-6.25-4.43-4.77-3.54-11.5-2.55-15.05 2.2-3.55 4.78-2.56 11.52 2.2 15.06.74.55 1.5 1.08 2.23 1.62.03-1.97.07-3.94.13-5.88.2-5.94 5.22-10.6 11.12-10.4 5.94.2 10.6 5.2 10.38 11.13-.2 6.07-.18 12.33 0 18.62 3.03 1.6 6.1 3.15 9.2 4.62 1.8.83 3.58 1.66 5.38 2.44 5.96 2.6 12.1 4.94 18.34 7 8.54 2.85 17.34 5.17 26.3 6.97 2.76.55 5.5 1.07 8.3 1.52 4.48.74 9.04 1.35 13.62 1.82 8.25.86 16.6 1.3 25 1.3 10.4 0 18.8-.23 27.38-.77 2.4-.15 4.84-.32 7.33-.53 5.93-.48 10.33-5.67 9.85-11.6zM358.13 136.86c0 .02-.02.03-.03.05l.14-.23c-.04.07-.08.13-.1.2zM282.72 91.38c-5.76-1.46-11.6 2.03-13.06 7.8-1.46 5.75 2.03 11.6 7.8 13.05 19.17 4.85 38.72 12.88 57.07 23.4 1.48-3.06 3.08-6.17 4.82-9.27 1.85-3.3 3.78-6.46 5.77-9.47-20.1-11.56-41.06-20.13-62.4-25.52zM244.74 85.38c-1.5-.1-3.02-.17-4.5-.24-5.94-.3-10.97 4.35-11.22 10.3-.26 5.92 4.35 10.94 10.28 11.2l4.13.2.66.03c5.64 0 10.37-4.4 10.72-10.1.36-5.93-4.15-11.03-10.08-11.4zM218.03 95.69c-.6-5.92-5.87-10.23-11.78-9.63-42.5 4.3-79.2 20.5-106.17 46.85-6.9 6.75-13.06 14.07-18.48 21.9 2.82 2.74 5.73 5.2 8.7 7.26 4.36 3.04 5.77 8.72 3.6 13.37 22.05-38 62.3-62.7 114.52-67.98 5.9-.6 10.2-5.88 9.62-11.78z"/><path d="M148.17 447.62c-.1-.5-8.93-43.83-10.2-85.63-.2-6.3-.2-12.56 0-18.63.2-5.94-4.45-10.9-10.4-11.12-5.9-.2-10.9 4.45-11.1 10.4-.07 1.93-.1 3.9-.14 5.87-.44 34.2 5.05 71.37 8.36 90.5h-13.02C101.96 414.7 69.16 325 75.48 237.3c1.63-22.44 7.65-42.7 17.47-60.2-2.1 2.97-5.42 4.57-8.8 4.57-2.13 0-4.27-.63-6.14-1.93-2.55-1.8-5.07-3.8-7.54-5.97-9.23 18.67-14.8 39.54-16.42 61.97-7.77 107.65 38.63 213.93 40.6 218.4 1.73 3.9 5.6 6.4 9.85 6.4h33.14c3.23 0 6.3-1.45 8.33-3.96 2.04-2.5 2.85-5.8 2.2-8.96zM384.1 170.43c-.03-.16-.04-.33-.06-.5.02.17.03.34.06.5zM384.33 171.45c-.04-.17-.08-.34-.1-.5.02.16.06.33.1.5zM383.98 169.4c-.02-.16-.02-.32-.02-.5 0 .18 0 .34.02.5zM385.6 174.32c-.1-.14-.17-.3-.25-.44l.25.44zM383.95 168.37l.03-.48c-.02.15-.03.3-.03.47zM384.66 172.44c-.07-.16-.12-.33-.17-.5l.16.5zM385.08 173.4c-.08-.16-.14-.32-.2-.48.06.16.12.32.2.48zM386.6 175.65l.3.34c.02 0 .03.02.05.04l-.34-.4zM384.02 167.34l.07-.46c-.04.15-.07.3-.08.46zM385.27 163.4l.26-.43c-.08.14-.18.28-.25.43zM386.5 161.63c.1-.13.22-.25.34-.38-.1.13-.24.25-.35.38z"/><path d="M416.16 82.64c-1.58-5-6.56-8.16-11.76-7.42-23 3.23-43.3 17.57-59.27 41.67-2 3-3.92 6.15-5.78 9.46-1.73 3.1-3.34 6.2-4.8 9.27-10.46 21.63-14.57 41-14.76 41.9-1.22 5.83 2.5 11.52 8.33 12.73.74.16 1.47.23 2.2.23 5 0 9.46-3.5 10.52-8.57.05-.23 4.85-22.82 17.25-45.02l.03-.04.1-.2c11.2-19.9 24.5-32.6 39.7-37.86 3.03 15.57 6.2 45.98-10.64 62-.03 0-.04.02-.06.03 4.26-4.1 11.03-4 15.16.25 2.28 2.34 4.43 4.43 6.5 6.46l.45.43c22.96-32.65 7.54-83 6.8-85.33z"/><path d="M385.83 162.5l.3-.42-.3.4zM384.2 166.32c.02-.15.06-.3.1-.44l-.12.44zM384.8 164.34l.22-.43-.2.44zM384.45 165.32l.16-.44c-.04.15-.1.3-.15.44zM386.23 175.2l-.3-.4.3.4z"/><path d="M503.95 256.24c-14.12-3.7-52.9-18.16-62.58-40.46-12.28-28.35-21.05-37.1-32.02-47.8l-.44-.44c-2.07-2.03-4.22-4.13-6.5-6.47-4.13-4.23-10.9-4.33-15.16-.24 0 .02-.03.03-.05.05l-.36.37c-.1.13-.24.25-.35.4-.13.13-.24.28-.36.43l-.3.4c-.12.17-.2.33-.3.5-.1.14-.2.27-.27.42-.1.17-.17.34-.25.5l-.2.44c-.08.18-.14.36-.2.54l-.17.44c-.06.18-.1.37-.15.55l-.12.45-.1.56c-.02.15-.05.3-.06.46-.03.2-.03.37-.04.55-.02.15-.03.3-.03.47v.54c0 .18 0 .34.03.5 0 .18.04.36.06.53.02.17.03.34.06.5.03.18.08.34.1.5l.13.52.16.5.15.5.22.47.2.48.28.48.25.45c.1.16.22.3.33.46l.3.4.38.46.35.38.05.05c2.47 2.53 4.72 4.72 6.9 6.84 10.2 9.97 16.97 16.55 27.73 41.4 12.26 28.26 50.16 44 67.8 49.94l-5.2 40.6c-9.17 5.74-35.76 20.58-81.86 32.85l-.68.18-.6.16c-14.67 3.87-30.16 7.15-46.07 9.78-9.32 1.54-19.03 2.9-28.9 4.03-.1 0-.2.04-.33.05l-.57.1-.5.1-.55.16c-.16.05-.32.1-.48.17l-.5.2c-.17.06-.33.14-.48.2-.16.1-.32.17-.47.25-.16.08-.3.17-.46.27-.16.08-.3.17-.44.27l-.44.3-.4.32c-.13.1-.26.23-.4.35l-.36.35-.36.4c-.1.1-.23.24-.33.37l-.32.4-.3.43c-.1.14-.18.28-.27.43l-.27.45-.2.46c-.1.14-.17.3-.24.47l-.18.47-.18.5-.14.5-.12.52-.1.53-.06.5-.04.55-.02.54v.53c.03.25.03.5.06.74.63 5.5 5.28 9.54 10.67 9.54.4 0 .83-.02 1.24-.07 3.47-.4 6.92-.83 10.36-1.28 3.1-.4 6.2-.84 9.26-1.3 3.48-.5 6.93-1.03 10.3-1.6 3.68-.6 7.32-1.24 10.95-1.9 8.54-1.6 16.95-3.36 25.15-5.3 4.25-1 8.45-2.05 12.58-3.15 2.94-.77 5.78-1.56 8.58-2.36 56.7-16.16 83.7-35.67 84.88-36.54 2.37-1.74 3.92-4.38 4.3-7.3L511.9 268c.7-5.37-2.7-10.4-7.95-11.78z"/><path d="M374.62 227.6c-14.93 0-27.08 12.15-27.08 27.08 0 5.94 4.8 10.75 10.75 10.75 5.93 0 10.75-4.8 10.75-10.75 0-3.07 2.5-5.56 5.57-5.56 3.07 0 5.57 2.5 5.57 5.56 0 5.94 4.8 10.75 10.74 10.75s10.76-4.8 10.76-10.75c0-14.93-12.15-27.08-27.08-27.08zM36.77 123.7v-.02c-1.65-4.38-3-8.64-4.08-12.8-5.97.12-12.5-.6-19.55-2.2-5.8-1.33-11.56 2.3-12.88 8.1-1.32 5.78 2.3 11.54 8.1 12.87 8.14 1.85 15.87 2.78 23.15 2.78 2.98 0 5.88-.16 8.7-.48-1.23-2.7-2.4-5.46-3.45-8.25z"/><path d="M89.1 78.36C87.67 63.1 77.8 52.3 64.57 51.53c-15.02-.9-23.33 5.98-27.68 11.9-7.94 10.8-9.33 27.68-4.2 47.46 1.1 4.14 2.43 8.4 4.1 12.78-2.1-5.56.7-11.77 6.25-13.87 5.55-2.08 11.76.72 13.86 6.27 1.27 3.4 2.72 6.7 4.3 9.93 20.37-10.1 29.55-30.33 27.9-47.64zM53.57 105.7c-3.8-14.52-2.68-25 .65-29.53 1.13-1.52 3.02-3.2 7.78-3.2.42 0 .86 0 1.32.04 3.6.22 4.33 6.66 4.4 7.4.7 7.33-2.8 18.7-14.14 25.3z"/><path d="M90.3 162.08c-2.97-2.06-5.88-4.52-8.7-7.26-7.85-7.64-14.95-17.65-20.4-28.82-1.58-3.23-3.03-6.54-4.3-9.92-2.1-5.56-8.3-8.36-13.87-6.26-5.56 2.1-8.36 8.3-6.26 13.86v.02c1.06 2.8 2.2 5.54 3.45 8.26 7.52 16.47 18.24 31.28 30.23 41.8 2.47 2.2 5 4.2 7.56 5.98 1.88 1.3 4.02 1.93 6.14 1.93 3.4 0 6.72-1.6 8.8-4.57l.04-.04c.36-.52.66-1.06.9-1.6 2.2-4.66.78-10.34-3.58-13.38z"/></svg>