<svg id="logo" xmlns="http://www.w3.org/2000/svg" viewBox="0 0 237.8142 210.6255" width="512" height="512"><path fill="#D0E8FF" d="M120 76.53c-48.52 0-88 39.47-88 88 0 5.8.57 11.6 1.7 17.27 23.5-8.58 53.92-13.27 86.3-13.27s62.8 4.7 86.3 13.27c1.13-5.67 1.7-11.46 1.7-17.27 0-48.53-39.48-88-88-88zm68 94.64c-2.2 0-4-1.8-4-4 0-34.2-27.8-62-62-62-2.2 0-4-1.8-4-4s1.8-4 4-4c38.6 0 70 31.4 70 70 0 2.2-1.8 4-4 4z"/><path fill="#1C71DA" d="M122 97.17c-2.2 0-4 1.8-4 4s1.8 4 4 4c34.2 0 62 27.8 62 62 0 2.2 1.8 4 4 4s4-1.8 4-4c0-38.6-31.4-70-70-70z"/><path fill="#1C71DA" d="M236.5 198.03c-5.13-4.65-12-8.66-22.7-13.2 1.43-6.66 2.2-13.46 2.2-20.3 0-52.94-43.07-96-96-96s-96 43.06-96 96c0 6.86.77 13.68 2.2 20.34-12.08 4.97-19.73 9.53-25.03 14.85-1.56 1.56-1.56 4.1 0 5.65.8.78 1.8 1.17 2.83 1.17s2.05-.4 2.83-1.17c6.58-6.6 18.22-11.57 27.63-15.16.14-.04.23-.15.36-.22 22.85-8.66 52.9-13.45 85.18-13.45 33.43 0 64.58 5.1 87.7 14.36.2.07.4.07.62.1.2.16.4.34.63.44 10.85 4.5 17.48 8.25 22.18 12.52.76.7 1.72 1.03 2.68 1.03 1.1 0 2.2-.45 2.98-1.32 1.48-1.64 1.36-4.17-.28-5.65zM120 168.53c-32.38 0-62.8 4.7-86.3 13.27-1.13-5.67-1.7-11.46-1.7-17.27 0-48.53 39.48-88 88-88s88 39.47 88 88c0 5.8-.57 11.6-1.7 17.27-23.5-8.58-53.92-13.27-86.3-13.27z"/><path fill="#FF5D5D" d="M176.38 52c-1.02 0-2.04-.4-2.82-1.17-1.57-1.56-1.57-4.1 0-5.66l14.14-14.14c1.56-1.56 4.1-1.56 5.65 0 1.57 1.56 1.57 4.1 0 5.66L179.2 50.82c-.77.78-1.8 1.17-2.82 1.17z"/><path fill="#FF5D5D" d="M190.53 52c-1.03 0-2.05-.4-2.83-1.17l-14.14-14.15c-1.57-1.56-1.57-4.1 0-5.65 1.56-1.56 4.1-1.56 5.65 0l14.15 14.14c1.57 1.56 1.57 4.1 0 5.66-.78.78-1.8 1.17-2.82 1.17z"/><path fill="#00D40B" d="M110.38 28c-7.72 0-14-6.28-14-14s6.28-14 14-14 14 6.28 14 14-6.28 14-14 14zm0-20c-3.3 0-6 2.7-6 6s2.7 6 6 6 6-2.7 6-6-2.7-6-6-6z"/><path fill="#FFC504" d="M131.7 210.63c-1.03 0-2.05-.4-2.83-1.18l-11.3-11.3c-1.58-1.57-1.58-4.1 0-5.67l11.3-11.3c1.56-1.57 4.1-1.57 5.66 0l11.3 11.3c1.57 1.57 1.57 4.1 0 5.66l-11.3 11.3c-.78.8-1.8 1.2-2.83 1.2zm-5.66-15.32l5.66 5.67 5.65-5.66-5.65-5.64-5.66 5.65z"/></svg>